<?xml version="1.0" encoding="UTF-8" standalone="no"?>
<!-- Created with Inkscape (http://www.inkscape.org/) -->

<svg
   xmlns:dc="http://purl.org/dc/elements/1.1/"
   xmlns:cc="http://creativecommons.org/ns#"
   xmlns:rdf="http://www.w3.org/1999/02/22-rdf-syntax-ns#"
   xmlns:svg="http://www.w3.org/2000/svg"
   xmlns="http://www.w3.org/2000/svg"
   xmlns:sodipodi="http://sodipodi.sourceforge.net/DTD/sodipodi-0.dtd"
   xmlns:inkscape="http://www.inkscape.org/namespaces/inkscape"
   width="8.4666662mm"
   height="8.4666662mm"
   viewBox="0 0 8.4666664 8.4666662"
   version="1.1"
   id="svg3615"
   inkscape:version="0.92.4 (5da689c313, 2019-01-14)"
   sodipodi:docname="malelogo2.svg">
  <defs
     id="defs3609" />
  <sodipodi:namedview
     id="base"
     pagecolor="#ffffff"
     bordercolor="#666666"
     borderopacity="1.0"
     inkscape:pageopacity="0.0"
     inkscape:pageshadow="2"
     inkscape:zoom="2.8"
     inkscape:cx="92.603142"
     inkscape:cy="-73.500626"
     inkscape:document-units="mm"
     inkscape:current-layer="layer1"
     showgrid="false"
     fit-margin-top="0"
     fit-margin-left="0"
     fit-margin-right="0"
     fit-margin-bottom="0"
     inkscape:window-width="1920"
     inkscape:window-height="1017"
     inkscape:window-x="-8"
     inkscape:window-y="-8"
     inkscape:window-maximized="1" />
  <metadata
     id="metadata3612">
    <rdf:RDF>
      <cc:Work
         rdf:about="">
        <dc:format>image/svg+xml</dc:format>
        <dc:type
           rdf:resource="http://purl.org/dc/dcmitype/StillImage" />
        <dc:title></dc:title>
      </cc:Work>
    </rdf:RDF>
  </metadata>
  <g
     inkscape:label="Layer 1"
     inkscape:groupmode="layer"
     id="layer1"
     transform="translate(-1.5127399e-6,-8.2488698)">
    <g
       id="g4176"
       transform="matrix(0.38810261,0,0,0.38810261,-36.840862,-45.2804)"
       style="stroke-width:2.57663798">
      <circle
         r="10.907768"
         cy="148.83333"
         cx="105.83334"
         id="path2688-1-5"
         style="opacity:1;vector-effect:none;fill:#d5b5bc;fill-opacity:1;fill-rule:nonzero;stroke:none;stroke-width:14.13442802;stroke-linecap:butt;stroke-linejoin:miter;stroke-miterlimit:4;stroke-dasharray:none;stroke-dashoffset:0;stroke-opacity:1" />
      <circle
         r="9.9146538"
         cy="148.83333"
         cx="105.83334"
         id="path2688-1-5-1"
         style="opacity:1;vector-effect:none;fill:#ffffff;fill-opacity:1;fill-rule:nonzero;stroke:none;stroke-width:14.13442802;stroke-linecap:butt;stroke-linejoin:miter;stroke-miterlimit:4;stroke-dasharray:none;stroke-dashoffset:0;stroke-opacity:1" />
      <path
         sodipodi:nodetypes="cccccccsscccccsccsccccccccccccccccccccscccccccccccccccccccsccccsccccccccsccccccccc"
         inkscape:connector-curvature="0"
         id="path127-3-0-9-2"
         d="m 110.3662,144.56621 c -0.30864,-0.0174 -0.66583,0.0225 -1.06017,0.1262 -0.78874,0.20737 -1.71069,0.70055 -2.57986,1.64123 -1.57949,1.70535 -2.45526,3.81125 -2.84925,5.35256 -0.0459,-0.0929 -0.0912,-0.15999 -0.13437,-0.29506 -0.15166,-0.47447 -0.27848,-1.21331 -0.29478,-2.29007 -0.004,-0.21889 -0.0124,-0.36616 -0.0275,-0.47502 -0.007,-0.0544 -0.0155,-0.0984 -0.0324,-0.14811 -0.0169,-0.0497 -0.019,-0.13796 -0.18232,-0.20392 -0.0815,-0.033 -0.19586,-0.0168 -0.25587,0.0178 -0.06,0.0346 -0.0847,0.07 -0.10259,0.0964 -0.0358,0.0529 -0.0444,0.0861 -0.0543,0.11948 -0.0198,0.0667 -0.0293,0.12353 -0.0272,0.19895 l 0.008,-0.0745 c -0.14368,0.58339 -0.40442,1.5512 -0.69352,2.39992 -0.14457,0.42436 -0.29673,0.8198 -0.44027,1.11625 -0.0599,0.1238 -0.0778,0.12327 -0.13353,0.20421 -0.0138,-0.0986 -0.0307,-0.15591 -0.0388,-0.28864 -0.0328,-0.52737 -0.0226,-1.2794 0.004,-2.02685 v -3.2e-4 -3.1e-4 c 0.0222,-0.70531 0.0378,-1.45388 0.004,-2.12969 -0.0349,-0.67582 -0.11142,-1.27482 -0.31991,-1.71981 -0.27523,-0.58677 -0.81481,-0.96009 -1.471504,-1.04966 h -3.17e-4 c -0.915212,-0.13048 -1.890466,0.35953 -2.517634,1.35085 h 2.47e-4 c -0.645407,1.01886 -0.524122,1.94888 0.02752,2.35141 v 0.001 0.001 c 0.17078,0.12087 0.360927,0.17066 0.530825,0.18142 l 0.0042,2.6e-4 h 0.0042 c 0.222532,0.007 0.415784,-0.0714 0.574604,-0.17178 0.07941,-0.0502 0.149825,-0.10675 0.210326,-0.17469 0.04113,-0.0462 0.06583,-0.11907 0.09264,-0.18785 l 0.01199,-0.11933 -0.02611,-0.14506 c -0.05989,-0.13013 -0.166716,-0.2332 -0.317846,-0.2332 -0.215829,0 -0.34103,0.15228 -0.356411,0.34414 -0.131763,0.0791 -0.254424,0.0968 -0.366925,0.0149 h -2.83e-4 l -3.17e-4,-2.7e-4 c -0.228313,-0.16508 -0.407806,-0.69115 0.125347,-1.52614 l 2.47e-4,-3.2e-4 2.91e-4,-3.1e-4 c 0.529097,-0.83713 1.335194,-1.15473 1.886621,-1.0777 0.375003,0.0553 0.678469,0.28919 0.840459,0.71194 1.1e-4,1.6e-4 -7e-5,3.2e-4 0,3.2e-4 0.0761,0.20284 0.1252,0.74671 0.12414,1.3897 0,0.64333 -0.0362,1.40356 -0.0628,2.13465 v 2.6e-4 c -0.0219,0.6217 -0.0645,1.47922 0.0187,2.16212 0.0415,0.34145 0.1029,0.64156 0.27199,0.87992 0.0846,0.11918 0.21075,0.22602 0.36985,0.26555 0.159,0.0395 0.32674,0.007 0.47907,-0.0651 h 3.2e-4 c 0.27721,-0.1315 0.40697,-0.3838 0.56497,-0.69997 0.15819,-0.31655 0.3101,-0.71004 0.45368,-1.13261 0.0997,-0.29344 0.15088,-0.54303 0.23929,-0.84545 0.03,0.30848 0.0572,0.62226 0.11451,0.89248 0.0737,0.35249 0.21159,0.65467 0.37278,0.88197 0.0806,0.11375 0.16658,0.20911 0.26349,0.28425 0.0969,0.0751 0.20718,0.13964 0.35874,0.13964 0.0415,0 0.0798,-0.0233 0.12125,-0.0333 l 0.0985,0.0543 0.0166,-0.0862 c 0.0898,-0.0493 0.16415,-0.12479 0.18817,-0.2489 l -0.004,0.0181 c 0.33175,-1.26018 1.28284,-3.65765 2.91373,-5.56816 0.75593,-0.88528 1.54041,-1.34678 2.18669,-1.55038 0.58089,-0.18298 1.02034,-0.12473 1.21645,-0.0467 -0.0134,0.0397 -0.0459,0.0641 -0.0459,0.11305 0,0.18904 0.14379,0.32432 0.32163,0.35408 0.22161,-0.0479 0.23135,-0.0669 0.34004,-0.14521 0.0236,-0.0278 0.0576,-0.051 0.0704,-0.0809 l 0.005,-0.008 0.005,-0.008 c 0.0444,-0.12347 0.0528,-0.27212 0,-0.40666 -0.0512,-0.13454 -0.15316,-0.24185 -0.2749,-0.31843 -0.19953,-0.12561 -0.45953,-0.2003 -0.76807,-0.21765 z"
         style="color:#000000;font-style:normal;font-variant:normal;font-weight:normal;font-stretch:normal;font-size:medium;line-height:normal;font-family:sans-serif;font-variant-ligatures:normal;font-variant-position:normal;font-variant-caps:normal;font-variant-numeric:normal;font-variant-alternates:normal;font-feature-settings:normal;text-indent:0;text-align:start;text-decoration:none;text-decoration-line:none;text-decoration-style:solid;text-decoration-color:#000000;letter-spacing:normal;word-spacing:normal;text-transform:none;writing-mode:lr-tb;direction:ltr;text-orientation:mixed;dominant-baseline:auto;baseline-shift:baseline;text-anchor:start;white-space:normal;shape-padding:0;clip-rule:nonzero;display:inline;overflow:visible;visibility:visible;opacity:1;isolation:auto;mix-blend-mode:normal;color-interpolation:sRGB;color-interpolation-filters:linearRGB;solid-color:#000000;solid-opacity:1;vector-effect:none;fill:#d5b5bc;fill-opacity:1;fill-rule:nonzero;stroke:none;stroke-width:3.40867805;stroke-linecap:butt;stroke-linejoin:miter;stroke-miterlimit:4;stroke-dasharray:none;stroke-dashoffset:0;stroke-opacity:1;color-rendering:auto;image-rendering:auto;shape-rendering:auto;text-rendering:auto;enable-background:accumulate" />
      <path
         sodipodi:nodetypes="cccccccccccccccccccccccccscccccccccccccccccccccccscccccccccccccccccccccscc"
         inkscape:connector-curvature="0"
         id="path129-6-2-3-4"
         d="m 110.48742,143.08974 c -1.24139,0.0297 -2.50543,0.77261 -3.366,2.13291 -1.01543,1.60261 -0.7409,2.98723 -0.006,3.55824 v 2.6e-4 c 0.58424,0.45341 1.50467,0.33928 2.02833,-0.36429 0.0465,-0.0623 0.0593,-0.14322 0.0701,-0.22203 l -0.0166,-0.17865 -0.0566,-0.15058 c -0.005,-0.004 0,-0.0112 -0.006,-0.0152 -0.13349,-0.1441 -0.36918,-0.17445 -0.54077,-0.0608 -0.14111,0.0936 -0.18344,0.27923 -0.1554,0.42681 -0.28049,0.21285 -0.67797,0.2469 -0.91588,0.0736 v -2.6e-4 -3.2e-4 c -0.39204,-0.28262 -0.7409,-1.32469 0.14316,-2.72302 0.88568,-1.3861 2.24229,-1.9405 3.21465,-1.80512 0.63705,0.0944 1.27744,0.68466 1.4949,1.2597 0.35866,0.94789 0.4651,2.47103 0.0836,4.05049 -0.19622,-0.0719 -0.40087,-0.13055 -0.6264,-0.16826 l -0.005,-3.2e-4 -0.005,-3.2e-4 c -1.3553,-0.19439 -2.82494,0.17963 -4.15014,1.04265 0,1.6e-4 0,3.1e-4 0,3.1e-4 -1.19197,0.76032 -2.16253,1.83088 -2.60502,2.92021 -0.34918,0.84639 -0.36901,1.6781 0.0229,2.2892 0.47974,0.75014 1.28781,0.97126 2.04932,0.9176 0.7197,-0.0507 1.41824,-0.32054 1.95792,-0.59246 0.62731,0.20573 1.37632,0.11297 2.16334,-0.25006 v -2.7e-4 c 2.07024,-0.9477 2.99141,-2.80655 2.78581,-4.25527 -0.0699,-0.50207 -0.29968,-0.92457 -0.61553,-1.26409 0.61465,-2.05369 0.4148,-3.82134 -0.17787,-4.99907 v 0 c -0.44851,-0.89027 -1.24089,-1.45183 -2.2414,-1.58981 -0.17463,-0.025 -0.35098,-0.0355 -0.5279,-0.0313 z m 1.32072,5.89623 0.005,3.1e-4 c 0,-7e-5 0,8e-5 0,0 0,-1.2e-4 0,-3.1e-4 0,-3.1e-4 z m -1.0058,0.52468 c 0.31281,-0.0225 0.62406,-0.0135 0.92901,0.031 v 2.6e-4 2.6e-4 c 0.19833,0.026 0.36512,0.0988 0.53724,0.16331 -0.68679,1.8226 -1.99542,3.86366 -3.4852,4.83985 -0.005,-0.005 -0.008,-0.007 -0.0134,-0.0123 -0.38026,-0.44574 -0.42774,-1.19856 -0.0944,-1.89744 0.20532,-0.0336 0.36368,-0.19737 0.36368,-0.39643 0,-0.19875 -0.11331,-0.31594 -0.27259,-0.37423 -0.0936,-0.0343 -0.20098,-0.0168 -0.30325,0.0234 l -0.0194,-0.0196 -0.0286,0.0491 c -0.0517,0.0268 -0.10777,0.0468 -0.14668,0.0891 l -0.0187,0.0205 -0.0145,0.0237 c -0.56681,0.93452 -0.56145,2.03936 -0.007,2.7981 -0.51291,0.25218 -1.00147,0.41144 -1.3994,0.43762 -0.48098,0.0316 -0.82719,-0.0885 -1.00408,-0.26847 -0.42781,-0.4504 -0.51018,-1.06157 -0.16767,-1.91263 3e-5,-8e-5 -4e-5,-1.6e-4 0,-2.6e-4 0.39571,-0.96189 1.29811,-1.95991 2.41367,-2.65496 0.83714,-0.52159 1.78929,-0.87218 2.72768,-0.9398 z m 2.38122,0.91789 c 0.11398,0.19171 0.20298,0.39933 0.24013,0.63862 0.14817,1.11681 -0.59235,2.75312 -2.42041,3.58161 -0.38834,0.17449 -0.74319,0.26138 -1.05981,0.28513 1.54827,-1.14761 2.6392,-2.79027 3.24009,-4.50536 z m -4.8942,4.52405 c 0,3.2e-4 0,0.001 0,0.002 0,3.2e-4 0,0.002 0,0.002 z"
         style="color:#000000;font-style:normal;font-variant:normal;font-weight:normal;font-stretch:normal;font-size:medium;line-height:normal;font-family:sans-serif;font-variant-ligatures:normal;font-variant-position:normal;font-variant-caps:normal;font-variant-numeric:normal;font-variant-alternates:normal;font-feature-settings:normal;text-indent:0;text-align:start;text-decoration:none;text-decoration-line:none;text-decoration-style:solid;text-decoration-color:#000000;letter-spacing:normal;word-spacing:normal;text-transform:none;writing-mode:lr-tb;direction:ltr;text-orientation:mixed;dominant-baseline:auto;baseline-shift:baseline;text-anchor:start;white-space:normal;shape-padding:0;clip-rule:nonzero;display:inline;overflow:visible;visibility:visible;opacity:1;isolation:auto;mix-blend-mode:normal;color-interpolation:sRGB;color-interpolation-filters:linearRGB;solid-color:#000000;solid-opacity:1;vector-effect:none;fill:#d5b5bc;fill-opacity:1;fill-rule:nonzero;stroke:none;stroke-width:3.40867805;stroke-linecap:butt;stroke-linejoin:miter;stroke-miterlimit:4;stroke-dasharray:none;stroke-dashoffset:0;stroke-opacity:1;color-rendering:auto;image-rendering:auto;shape-rendering:auto;text-rendering:auto;enable-background:accumulate" />
    </g>
  </g>
</svg>
